<?xml version="1.0" encoding="utf-8"?>
<!-- Generator: Adobe Illustrator 19.0.0, SVG Export Plug-In . SVG Version: 6.00 Build 0)  -->
<svg version="1.1" id="图层_1" xmlns="http://www.w3.org/2000/svg" xmlns:xlink="http://www.w3.org/1999/xlink" x="0px" y="0px"
	 viewBox="0 0 50 50" style="enable-background:new 0 0 50 50;" xml:space="preserve">
<style type="text/css">
	.st0{fill:#FFFFFF;}
	.st1{fill:url(#XMLID_3_);}
	.st2{fill:none;}
	.st3{fill:#54A5D9;}
</style>
<g id="XMLID_1_">
	<g id="Rectangle_1_">
		<g id="path-2_2_">
			<path id="XMLID_13_" class="st0" d="M6,0h38c3.3,0,6,2.7,6,6v38c0,3.3-2.7,6-6,6H6c-3.3,0-6-2.7-6-6V6C0,2.7,2.7,0,6,0z"/>
			<linearGradient id="XMLID_3_" gradientUnits="userSpaceOnUse" x1="24.9874" y1="1.051862e-06" x2="24.9874" y2="50">
				<stop  offset="0" style="stop-color:#DBDADA;stop-opacity:0.9993"/>
				<stop  offset="1" style="stop-color:#CCCBCB"/>
			</linearGradient>
			<path id="XMLID_10_" class="st1" d="M44,0.8c2.9,0,5.2,2.4,5.2,5.2v38c0,2.9-2.4,5.2-5.2,5.2H6c-2.9,0-5.2-2.4-5.2-5.2V6
				c0-2.9,2.4-5.2,5.2-5.2H44 M44,0H6C2.7,0,0,2.7,0,6v38c0,3.3,2.7,6,6,6h38c3.3,0,6-2.7,6-6V6C50,2.7,47.3,0,44,0L44,0z"/>
		</g>
	</g>
	<g id="Group-49_1_" transform="translate(10.000000, 13.000000)">
		<path id="Fill-43_1_" class="st2" d="M9.8,16.7c0,2.3-1.7,3.7-3.7,3.7H2.6v-17h3.5c2,0,3.7,1.4,3.7,3.7V16.7z M6.1,0.8h-6v22h6
			c3.9,0,6.2-2.1,6.2-6.6V7.4C12.3,2.9,10,0.8,6.1,0.8L6.1,0.8z M27.7,14.3c-1.4-0.9-1.7-1.4-1.7-2.2c0-0.8,0.7-1.5,1.7-1.5
			c0.8,0,1.4,0.3,2,0.6l0.6-2.3c-0.7-0.4-1.6-0.7-2.8-0.7c-2.6,0-4.2,1.9-4.2,4.4c0,1.5,0.6,2.8,2.7,4.1c1.3,0.9,1.8,1.4,1.8,2.3
			c0,1-0.8,1.7-1.9,1.7c-0.9,0-1.9-0.4-2.5-0.8l-0.6,2.3c0.6,0.5,1.9,0.8,3.1,0.8c2.7,0,4.5-1.4,4.5-4.4
			C30.5,16.9,29.6,15.5,27.7,14.3L27.7,14.3z M13.8,15.8c0,4.7,2.3,7.3,5.7,7.3c1.1,0,2-0.2,2.4-0.5l-0.3-2.5
			c-0.4,0.2-0.9,0.3-1.5,0.3c-1.9,0-3.6-1.9-3.6-4.8c0-2.6,1.6-4.8,3.6-4.8c0.2,0,0.4,0,0.6,0.1c0.1-0.5,0.2-0.9,0.5-1.3
			c0.2-0.4,0.6-0.7,0.9-0.9l0,0c-0.4-0.2-1.2-0.4-2.1-0.4C16.2,8.2,13.8,11.5,13.8,15.8L13.8,15.8z"/>
		<path id="Fill-45_1_" class="st2" d="M9.8,16.7c0,2.3-1.7,3.7-3.7,3.7H2.6v-17h3.5c2,0,3.7,1.4,3.7,3.7V16.7z M6.1,0.8h-6v22h6
			c3.9,0,6.2-2.1,6.2-6.6V7.4C12.3,2.9,10,0.8,6.1,0.8L6.1,0.8z M27.7,14.3c-1.4-0.9-1.7-1.4-1.7-2.2c0-0.8,0.7-1.5,1.7-1.5
			c0.8,0,1.4,0.3,2,0.6l0.6-2.3c-0.7-0.4-1.6-0.7-2.8-0.7c-2.6,0-4.2,1.9-4.2,4.4c0,1.5,0.6,2.8,2.7,4.1c1.3,0.9,1.8,1.4,1.8,2.3
			c0,1-0.8,1.7-1.9,1.7c-0.9,0-1.9-0.4-2.5-0.8l-0.6,2.3c0.6,0.5,1.9,0.8,3.1,0.8c2.7,0,4.5-1.4,4.5-4.4
			C30.5,16.9,29.6,15.5,27.7,14.3L27.7,14.3z M13.8,15.8c0,4.7,2.3,7.3,5.7,7.3c1.1,0,2-0.2,2.4-0.5l-0.3-2.5
			c-0.4,0.2-0.9,0.3-1.5,0.3c-1.9,0-3.6-1.9-3.6-4.8c0-2.6,1.6-4.8,3.6-4.8c0.2,0,0.4,0,0.6,0.1c0.1-0.5,0.2-0.9,0.5-1.3
			c0.2-0.4,0.6-0.7,0.9-0.9l0,0c-0.4-0.2-1.2-0.4-2.1-0.4C16.2,8.2,13.8,11.5,13.8,15.8L13.8,15.8z"/>
		<path id="Fill-47_1_" class="st3" d="M9.8,16.7c0,2.3-1.7,3.7-3.7,3.7H2.6v-17h3.5c2,0,3.7,1.4,3.7,3.7V16.7z M6.1,0.8h-6v22h6
			c3.9,0,6.2-2.1,6.2-6.6V7.4C12.3,2.9,10,0.8,6.1,0.8L6.1,0.8z M27.7,14.3c-1.4-0.9-1.7-1.4-1.7-2.2c0-0.8,0.7-1.5,1.7-1.5
			c0.8,0,1.4,0.3,2,0.6l0.6-2.3c-0.7-0.4-1.6-0.7-2.8-0.7c-2.6,0-4.2,1.9-4.2,4.4c0,1.4,0.6,2.8,2.7,4.1c1.3,0.9,1.8,1.4,1.8,2.3
			c0,1-0.8,1.7-1.9,1.7c-0.9,0-1.9-0.4-2.5-0.8l-0.6,2.3c0.6,0.5,1.9,0.8,3.1,0.8c2.7,0,4.5-1.4,4.5-4.4
			C30.5,16.9,29.6,15.5,27.7,14.3L27.7,14.3z M13.8,15.8c0,4.7,2.3,7.3,5.7,7.3c1.1,0,2-0.2,2.4-0.5l-0.3-2.5
			c-0.4,0.2-0.9,0.3-1.5,0.3c-1.9,0-3.6-1.9-3.6-4.8c0-2.6,1.6-4.8,3.6-4.8c0.2,0,0.4,0,0.6,0.1c0.1-0.5,0.2-0.9,0.5-1.3
			c0.2-0.4,0.6-0.7,0.9-0.9l0,0c-0.4-0.2-1.2-0.4-2.1-0.4C16.2,8.2,13.8,11.5,13.8,15.8L13.8,15.8z"/>
	</g>
</g>
</svg>
