<?xml version="1.0" encoding="utf-8"?>
<!-- Generator: Adobe Illustrator 19.0.0, SVG Export Plug-In . SVG Version: 6.00 Build 0)  -->
<svg version="1.1" id="图层_1" xmlns="http://www.w3.org/2000/svg" xmlns:xlink="http://www.w3.org/1999/xlink" x="0px" y="0px"
	 viewBox="0 0 50 50" style="enable-background:new 0 0 50 50;" xml:space="preserve">
<style type="text/css">
	.st0{fill:#FFFFFF;}
	.st1{fill:url(#XMLID_5_);}
	.st2{fill:url(#XMLID_6_);}
</style>
<g id="XMLID_1_">
	<g id="XMLID_717_">
		<path id="XMLID_14_" class="st0" d="M44,50H6c-3.3,0-6-2.7-6-6V6c0-3.3,2.7-6,6-6h38c3.3,0,6,2.7,6,6v38C50,47.3,47.3,50,44,50z"
			/>
		<linearGradient id="XMLID_5_" gradientUnits="userSpaceOnUse" x1="25" y1="-9.723935e-07" x2="25" y2="50">
			<stop  offset="0" style="stop-color:#DCDCDB"/>
			<stop  offset="1" style="stop-color:#CBCACA"/>
		</linearGradient>
		<path id="XMLID_11_" class="st1" d="M44,0.7c2.9,0,5.2,2.4,5.2,5.2v38c0,2.9-2.4,5.2-5.2,5.2H6c-2.9,0-5.2-2.4-5.2-5.2V6
			c0-2.9,2.4-5.2,5.2-5.2H44 M44,0H6C2.7,0,0,2.7,0,6v38c0,3.3,2.7,6,6,6h38c3.3,0,6-2.7,6-6V6C50,2.7,47.3,0,44,0L44,0z"/>
	</g>
	<g id="XMLID_688_">
		<g id="XMLID_65_">
			<linearGradient id="XMLID_6_" gradientUnits="userSpaceOnUse" x1="25.7276" y1="35.8527" x2="25.7276" y2="13.1965">
				<stop  offset="0" style="stop-color:#424348"/>
				<stop  offset="1" style="stop-color:#5F5F65"/>
			</linearGradient>
			<path id="XMLID_66_" class="st2" d="M16.6,13.2l-6.3,0v22.5l6.3,0c4,0,6.2-1.9,6.2-6.5v-9.5C22.8,15.1,20.6,13.2,16.6,13.2z
				 M20.2,29.5c0,2.4-2.1,3.5-4.2,3.5h-3.2V15.8H16c2.1,0,4.2,1.2,4.2,3.5V29.5z M40.6,22.6c-1.1,0-2.3,0.9-2.8,2.2l0,0v-2
				c-0.3,0.2-0.6,0.5-0.9,0.7c-0.5,0.3-1,0.4-1.5,0.5c0,0.8,0,1.9,0,2.6v9.4h2.5V29c0-0.5,0-0.9,0.1-1.3c0.3-1.4,1.8-2.3,2.8-2.3
				c0.2,0,0.4,0,0.6,0.1v-2.9C41,22.6,40.8,22.6,40.6,22.6z M30.2,22.3c-1.2,0-2.2,0.5-2.9,1.6v-5.5v-0.1c-0.5-0.1-1-0.2-1.5-0.5
				c-0.4-0.2-0.8-0.6-1.1-0.9h0v1.5h0l0,17.2l2.6,0V34c0.6,1.2,1.2,1.8,2.4,1.8c2.3,0,4.2-2.4,4.2-7.1
				C33.9,24.9,32.5,22.3,30.2,22.3z M29,33.5c-0.5,0-1.2-0.3-1.5-1.7c-0.1-0.2-0.2-0.9-0.2-1.2l0-2.9c0-0.3,0.1-1,0.2-1.3
				c0.2-0.9,0.8-1.7,1.5-1.7c1.4,0,2.3,2,2.3,4.4C31.3,31.8,30.4,33.5,29,33.5z"/>
		</g>
	</g>
</g>
</svg>
