<?xml version="1.0" encoding="utf-8"?>
<!-- Generator: Adobe Illustrator 19.0.0, SVG Export Plug-In . SVG Version: 6.00 Build 0)  -->
<svg version="1.1" id="图层_1" xmlns="http://www.w3.org/2000/svg" xmlns:xlink="http://www.w3.org/1999/xlink" x="0px" y="0px"
	 viewBox="0 0 50 50" style="enable-background:new 0 0 50 50;" xml:space="preserve">
<style type="text/css">
	.st0{fill:#FFFFFF;}
	.st1{fill:url(#XMLID_3_);}
	.st2{fill:url(#XMLID_4_);}
</style>
<g id="XMLID_1_">
	<g id="XMLID_821_">
		<path id="XMLID_14_" class="st0" d="M44.1,49.9h-38c-3.3,0-6-2.7-6-6v-38c0-3.3,2.7-6,6-6h38c3.3,0,6,2.7,6,6v38
			C50.1,47.2,47.4,49.9,44.1,49.9z"/>
		<linearGradient id="XMLID_3_" gradientUnits="userSpaceOnUse" x1="25.0564" y1="-6.963732e-02" x2="25.0564" y2="49.9304">
			<stop  offset="0" style="stop-color:#DCDCDB"/>
			<stop  offset="1" style="stop-color:#CBCACA"/>
		</linearGradient>
		<path id="XMLID_11_" class="st1" d="M44.1,0.7c2.9,0,5.2,2.4,5.2,5.2v38c0,2.9-2.4,5.2-5.2,5.2h-38c-2.9,0-5.2-2.4-5.2-5.2v-38
			c0-2.9,2.4-5.2,5.2-5.2H44.1 M44.1-0.1h-38c-3.3,0-6,2.7-6,6v38c0,3.3,2.7,6,6,6h38c3.3,0,6-2.7,6-6v-38
			C50.1,2.6,47.4-0.1,44.1-0.1L44.1-0.1z"/>
	</g>
	<g id="XMLID_794_">
		<g id="XMLID_50_">
			
				<linearGradient id="XMLID_4_" gradientUnits="userSpaceOnUse" x1="25.6591" y1="35.7544" x2="25.6591" y2="13.0982" gradientTransform="matrix(1 0 0 1 -0.2902 -0.2818)">
				<stop  offset="0" style="stop-color:#F48C32"/>
				<stop  offset="1" style="stop-color:#F69C36"/>
			</linearGradient>
			<path id="XMLID_51_" class="st2" d="M42.3,33.1c-0.6,0-1-0.5-1-1.2v-7.7h1.6v-2.2h-1.6v-2.2v-1c-0.2,0.2-0.5,0.4-0.9,0.6
				c-0.5,0.3-1.1,0.4-1.7,0.4l0,2.1h-1.6v2.2h1.6l0,8.3c0,1.9,0.9,3,3,3c0.7,0,1-0.1,1.4-0.2v-2.1H42.3z M13.6,12.8l-6,0l0,22.5h6
				c4,0,6.4-1.9,6.4-6.5v-9.5C19.9,14.7,17.6,12.8,13.6,12.8z M17.3,29.2c0,2.4-1.7,3.5-3.8,3.5h-3.4V15.4h3.4
				c2.1,0,3.8,1.2,3.8,3.5V29.2z M31.8,32.2L31.8,32.2c-0.3-1.4-0.6-2.7-0.9-4.2l-1.3-5.9h-2.2l-1.4,6c-0.3,1.3-0.6,2.7-0.8,4.1
				h-0.1c-0.1-1.3-2.1-10.1-2.1-10.1h-2.6l3.3,13.2h2.5l1.4-5.4c0.3-1.3,0.6-2.5,0.8-4c0,0,0.5,2.7,0.8,4l1.2,5.4h2.5l3.7-13.2H34
				C34,22.1,31.9,30.8,31.8,32.2z"/>
		</g>
	</g>
</g>
</svg>
